<svg width="27" height="27" viewBox="0 0 27 27" fill="none" xmlns="http://www.w3.org/2000/svg">
<circle cx="13.8493" cy="13.0835" r="13.0837" fill="white"/>
<path fill-rule="evenodd" clip-rule="evenodd" d="M12.9889 8.41128C13.5489 7.85118 14.3085 7.53647 15.1005 7.53638H16.6364C16.7496 7.53638 16.8581 7.58133 16.9381 7.66134C17.0181 7.74135 17.0631 7.84987 17.0631 7.96302V10.0109C17.0631 10.1241 17.0181 10.2326 16.9381 10.3126C16.8581 10.3926 16.7496 10.4375 16.6364 10.4375H15.1005C15.0893 10.4375 15.0782 10.4398 15.0679 10.444C15.0575 10.4483 15.0481 10.4546 15.0402 10.4625C15.0323 10.4705 15.026 10.4799 15.0217 10.4902C15.0174 10.5006 15.0152 10.5117 15.0152 10.5229V11.6321H16.6364C16.7013 11.6321 16.7653 11.6469 16.8236 11.6753C16.8819 11.7037 16.933 11.745 16.9729 11.7962C17.0128 11.8473 17.0406 11.9068 17.054 11.9703C17.0675 12.0337 17.0663 12.0994 17.0506 12.1623L16.5386 14.2102C16.5155 14.3025 16.4622 14.3845 16.3872 14.443C16.3121 14.5016 16.2197 14.5334 16.1245 14.5333H15.0152V18.2024C15.0152 18.3156 14.9703 18.4241 14.8902 18.5041C14.8102 18.5841 14.7017 18.6291 14.5886 18.6291H12.5407C12.4275 18.6291 12.319 18.5841 12.239 18.5041C12.159 18.4241 12.114 18.3156 12.114 18.2024V14.5333H11.0048C10.8916 14.5333 10.7831 14.4884 10.7031 14.4084C10.6231 14.3283 10.5781 14.2198 10.5781 14.1067V12.0588C10.5781 12.0028 10.5892 11.9473 10.6106 11.8955C10.632 11.8438 10.6635 11.7967 10.7031 11.7571C10.7427 11.7175 10.7897 11.6861 10.8415 11.6646C10.8933 11.6432 10.9487 11.6321 11.0048 11.6321H12.114V10.5229C12.1141 9.73084 12.4288 8.97128 12.9889 8.41128ZM15.1005 8.38966C14.5348 8.38966 13.9922 8.61441 13.5921 9.01447C13.1921 9.41452 12.9673 9.95711 12.9673 10.5229V12.0588C12.9673 12.1719 12.9224 12.2805 12.8424 12.3605C12.7624 12.4405 12.6538 12.4854 12.5407 12.4854H11.4314V13.68H12.5407C12.6538 13.68 12.7624 13.725 12.8424 13.805C12.9224 13.885 12.9673 13.9935 12.9673 14.1067V17.7758H14.1619V14.1067C14.1619 13.9935 14.2069 13.885 14.2869 13.805C14.3669 13.725 14.4754 13.68 14.5886 13.68H15.7911L16.0898 12.4854H14.5886C14.4754 12.4854 14.3669 12.4405 14.2869 12.3605C14.2069 12.2805 14.1619 12.1719 14.1619 12.0588V10.5229C14.1619 10.2739 14.2608 10.0352 14.4368 9.85917C14.6129 9.68315 14.8516 9.58426 15.1005 9.58426H16.2098V8.38966H15.1005Z" fill="black"/>
</svg>
