<svg width="27" height="27" viewBox="0 0 27 27" fill="none" xmlns="http://www.w3.org/2000/svg">
<circle cx="13.615" cy="13.0835" r="13.0837" fill="white"/>
<path d="M16.652 9.36302C16.517 9.36302 16.3851 9.40305 16.2728 9.47806C16.1605 9.55307 16.073 9.65968 16.0214 9.78442C15.9697 9.90915 15.9562 10.0464 15.9825 10.1788C16.0089 10.3112 16.0739 10.4329 16.1694 10.5283C16.2648 10.6238 16.3865 10.6888 16.5189 10.7152C16.6513 10.7415 16.7885 10.728 16.9133 10.6763C17.038 10.6246 17.1446 10.5372 17.2196 10.4249C17.2946 10.3126 17.3347 10.1807 17.3347 10.0456C17.3347 9.8646 17.2628 9.69097 17.1347 9.56296C17.0067 9.43494 16.8331 9.36302 16.652 9.36302ZM19.2688 10.7397C19.2577 10.2677 19.1693 9.8007 19.0071 9.35733C18.8625 8.97798 18.6373 8.63447 18.3472 8.35045C18.0655 8.05887 17.7212 7.83517 17.3404 7.69627C16.8982 7.52912 16.4307 7.4387 15.958 7.42891C15.355 7.39478 15.1616 7.39478 13.6143 7.39478C12.0671 7.39478 11.8736 7.39478 11.2707 7.42891C10.798 7.4387 10.3305 7.52912 9.88834 7.69627C9.50816 7.83658 9.16414 8.06009 8.88146 8.35045C8.58988 8.63214 8.36618 8.97645 8.22728 9.35733C8.06012 9.79953 7.9697 10.267 7.95991 10.7397C7.92578 11.3426 7.92578 11.5361 7.92578 13.0833C7.92578 14.6306 7.92578 14.824 7.95991 15.427C7.9697 15.8997 8.06012 16.3672 8.22728 16.8094C8.36618 17.1902 8.58988 17.5345 8.88146 17.8162C9.16414 18.1066 9.50816 18.3301 9.88834 18.4704C10.3305 18.6376 10.798 18.728 11.2707 18.7378C11.8736 18.7719 12.0671 18.7719 13.6143 18.7719C15.1616 18.7719 15.355 18.7719 15.958 18.7378C16.4307 18.728 16.8982 18.6376 17.3404 18.4704C17.7212 18.3315 18.0655 18.1078 18.3472 17.8162C18.6386 17.5333 18.8639 17.1895 19.0071 16.8094C19.1693 16.366 19.2577 15.899 19.2688 15.427C19.2688 14.824 19.3029 14.6306 19.3029 13.0833C19.3029 11.5361 19.3029 11.3426 19.2688 10.7397ZM18.2448 15.3588C18.2407 15.7199 18.1753 16.0776 18.0514 16.4168C17.9606 16.6644 17.8147 16.8881 17.6248 17.071C17.4403 17.259 17.217 17.4046 16.9706 17.4977C16.6314 17.6215 16.2736 17.6869 15.9125 17.6911C15.3437 17.7195 15.1332 17.7252 13.6371 17.7252C12.141 17.7252 11.9305 17.7252 11.3617 17.6911C10.9867 17.6981 10.6134 17.6404 10.2581 17.5204C10.0225 17.4226 9.80947 17.2774 9.63235 17.0938C9.44354 16.911 9.29948 16.6872 9.2114 16.4396C9.07251 16.0955 8.99548 15.7296 8.98385 15.3588C8.98385 14.7899 8.94972 14.5794 8.94972 13.0833C8.94972 11.5872 8.94972 11.3768 8.98385 10.8079C8.9864 10.4388 9.0538 10.0729 9.18295 9.72709C9.2831 9.48698 9.43682 9.27295 9.63235 9.10135C9.80518 8.90575 10.0188 8.75042 10.2581 8.64626C10.6048 8.52114 10.9703 8.45574 11.3389 8.45285C11.9078 8.45285 12.1183 8.41872 13.6143 8.41872C15.1104 8.41872 15.3209 8.41872 15.8898 8.45285C16.2509 8.45699 16.6086 8.52239 16.9478 8.64626C17.2064 8.7422 17.4384 8.89818 17.6248 9.10135C17.8112 9.27609 17.9569 9.48972 18.0514 9.72709C18.1779 10.0735 18.2433 10.4392 18.2448 10.8079C18.2733 11.3768 18.279 11.5872 18.279 13.0833C18.279 14.5794 18.2733 14.7899 18.2448 15.3588ZM13.6143 10.1651C13.0374 10.1662 12.4738 10.3383 11.9946 10.6597C11.5155 10.981 11.1423 11.4372 10.9223 11.9705C10.7023 12.5039 10.6453 13.0904 10.7586 13.6561C10.8718 14.2218 11.1502 14.7413 11.5585 15.1488C11.9669 15.5564 12.4869 15.8338 13.0528 15.9459C13.6187 16.0581 14.2052 15.9999 14.7381 15.7789C15.271 15.5578 15.7264 15.1838 16.0469 14.704C16.3673 14.2243 16.5383 13.6603 16.5383 13.0833C16.539 12.6994 16.4639 12.3191 16.3171 11.9644C16.1704 11.6096 15.9549 11.2874 15.6832 11.0161C15.4115 10.7449 15.0888 10.5301 14.7337 10.3841C14.3787 10.238 13.9983 10.1636 13.6143 10.1651ZM13.6143 14.9776C13.2397 14.9776 12.8734 14.8665 12.5619 14.6584C12.2504 14.4502 12.0076 14.1544 11.8642 13.8083C11.7209 13.4621 11.6834 13.0812 11.7565 12.7138C11.8295 12.3463 12.01 12.0088 12.2749 11.7439C12.5398 11.479 12.8773 11.2985 13.2448 11.2254C13.6122 11.1524 13.9931 11.1899 14.3393 11.3332C14.6854 11.4766 14.9812 11.7194 15.1894 12.0309C15.3975 12.3424 15.5086 12.7087 15.5086 13.0833C15.5086 13.3321 15.4596 13.5784 15.3644 13.8083C15.2692 14.0381 15.1297 14.2469 14.9538 14.4228C14.7779 14.5987 14.5691 14.7382 14.3393 14.8334C14.1094 14.9286 13.8631 14.9776 13.6143 14.9776Z" fill="black"/>
</svg>
