<svg width="27" height="27" viewBox="0 0 27 27" fill="none" xmlns="http://www.w3.org/2000/svg">
<circle cx="13.9157" cy="13.0835" r="13.0837" fill="white"/>
<g clip-path="url(#clip0_588_519)">
<path fill-rule="evenodd" clip-rule="evenodd" d="M9.93545 6.96899C9.52056 6.96899 9.12266 7.13381 8.82928 7.42718C8.53591 7.72056 8.37109 8.11846 8.37109 8.53335C8.37109 8.94824 8.53591 9.34614 8.82928 9.63952C9.12266 9.93289 9.52056 10.0977 9.93545 10.0977C10.3503 10.0977 10.7482 9.93289 11.0416 9.63952C11.335 9.34614 11.4998 8.94824 11.4998 8.53335C11.4998 8.11846 11.335 7.72056 11.0416 7.42718C10.7482 7.13381 10.3503 6.96899 9.93545 6.96899ZM9.22438 8.53335C9.22438 8.34476 9.29929 8.1639 9.43265 8.03055C9.566 7.8972 9.74686 7.82228 9.93545 7.82228C10.124 7.82228 10.3049 7.8972 10.4383 8.03055C10.5716 8.1639 10.6465 8.34476 10.6465 8.53335C10.6465 8.72194 10.5716 8.9028 10.4383 9.03615C10.3049 9.1695 10.124 9.24442 9.93545 9.24442C9.74686 9.24442 9.566 9.1695 9.43265 9.03615C9.29929 8.9028 9.22438 8.72194 9.22438 8.53335ZM8.37109 10.8088C8.37109 10.6956 8.41604 10.5871 8.49605 10.5071C8.57607 10.4271 8.68458 10.3821 8.79774 10.3821H11.0732C11.1863 10.3821 11.2948 10.4271 11.3748 10.5071C11.4549 10.5871 11.4998 10.6956 11.4998 10.8088V18.2039C11.4998 18.3171 11.4549 18.4256 11.3748 18.5056C11.2948 18.5856 11.1863 18.6306 11.0732 18.6306H8.79774C8.68458 18.6306 8.57607 18.5856 8.49605 18.5056C8.41604 18.4256 8.37109 18.3171 8.37109 18.2039V10.8088ZM9.22438 11.2354V17.7773H10.6465V11.2354H9.22438ZM12.3531 10.8088C12.3531 10.6956 12.398 10.5871 12.4781 10.5071C12.5581 10.4271 12.6666 10.3821 12.7797 10.3821H15.0552C15.1683 10.3821 15.2768 10.4271 15.3568 10.5071C15.4369 10.5871 15.4818 10.6956 15.4818 10.8088V11.0557L15.7293 10.9493C16.1559 10.767 16.6085 10.6527 17.0706 10.6108C18.6492 10.4675 20.0327 11.7076 20.0327 13.3004V18.2039C20.0327 18.3171 19.9877 18.4256 19.9077 18.5056C19.8277 18.5856 19.7192 18.6306 19.606 18.6306H17.3306C17.2174 18.6306 17.1089 18.5856 17.0289 18.5056C16.9489 18.4256 16.9039 18.3171 16.9039 18.2039V14.2219C16.9039 14.0333 16.829 13.8525 16.6957 13.7191C16.5623 13.5858 16.3815 13.5108 16.1929 13.5108C16.0043 13.5108 15.8234 13.5858 15.6901 13.7191C15.5567 13.8525 15.4818 14.0333 15.4818 14.2219V18.2039C15.4818 18.3171 15.4369 18.4256 15.3568 18.5056C15.2768 18.5856 15.1683 18.6306 15.0552 18.6306H12.7797C12.6666 18.6306 12.5581 18.5856 12.4781 18.5056C12.398 18.4256 12.3531 18.3171 12.3531 18.2039V10.8088ZM13.2064 11.2354V17.7773H14.6285V14.2219C14.6285 13.807 14.7933 13.4091 15.0867 13.1157C15.3801 12.8224 15.778 12.6576 16.1929 12.6576C16.6078 12.6576 17.0057 12.8224 17.299 13.1157C17.5924 13.4091 17.7572 13.807 17.7572 14.2219V17.7773H19.1794V13.3004C19.1794 12.2173 18.2345 11.3617 17.1486 11.4607C16.7755 11.4946 16.41 11.5868 16.0654 11.7337L15.2235 12.095C15.1586 12.1229 15.0878 12.1342 15.0174 12.1279C14.947 12.1217 14.8792 12.098 14.8202 12.0591C14.7612 12.0202 14.7128 11.9672 14.6794 11.905C14.6459 11.8427 14.6284 11.7731 14.6285 11.7025V11.2354H13.2064Z" fill="black"/>
</g>
<defs>
<clipPath id="clip0_588_519">
<rect width="13.6526" height="13.6526" fill="white" transform="translate(7.08984 6.25708)"/>
</clipPath>
</defs>
</svg>
