<svg width="27" height="27" viewBox="0 0 27 27" fill="none" xmlns="http://www.w3.org/2000/svg">
<circle cx="13.3845" cy="13.0835" r="13.0837" fill="white"/>
<g clip-path="url(#clip0_588_509)">
<path d="M13.7778 6.43066C11.0055 6.43066 8.26562 8.25456 8.26562 11.2064C8.26562 13.0836 9.33564 14.1502 9.98414 14.1502C10.2516 14.1502 10.4057 13.4143 10.4057 13.2063C10.4057 12.9583 9.76527 12.4303 9.76527 11.3984C9.76527 9.2545 11.4189 7.73459 13.559 7.73459C15.3991 7.73459 16.7609 8.76653 16.7609 10.6624C16.7609 12.0783 16.1854 14.7342 14.321 14.7342C13.6481 14.7342 13.0726 14.2542 13.0726 13.5663C13.0726 12.5583 13.786 11.5824 13.786 10.5424C13.786 8.7772 11.2487 9.09718 11.2487 11.2304C11.2487 11.6784 11.3055 12.1743 11.5081 12.5823C11.1352 14.1662 10.3732 16.5261 10.3732 18.158C10.3732 18.662 10.4462 19.1579 10.4948 19.6619C10.5867 19.7632 10.5408 19.7526 10.6813 19.7019C12.0431 17.862 11.9945 17.502 12.6106 15.0942C12.9429 15.7181 13.8022 16.0541 14.4831 16.0541C17.3527 16.0541 18.6416 13.2943 18.6416 10.8064C18.6416 8.15857 16.3232 6.43066 13.7778 6.43066Z" fill="black"/>
</g>
<defs>
<clipPath id="clip0_588_509">
<rect width="13.6526" height="13.6526" fill="white" transform="translate(6.55859 6.25708)"/>
</clipPath>
</defs>
</svg>
