<svg width="27" height="27" viewBox="0 0 27 27" fill="none" xmlns="http://www.w3.org/2000/svg">
<circle cx="13.1501" cy="13.0835" r="13.0837" fill="white"/>
<path d="M13.1495 8.53271C13.6359 8.53271 14.1348 8.54523 14.6183 8.56571L15.1894 8.59301L15.7361 8.62544L16.2481 8.66014L16.7157 8.69655C17.2231 8.73539 17.7006 8.95193 18.0642 9.30809C18.4277 9.66425 18.654 10.1372 18.7033 10.6437L18.726 10.8855L18.7687 11.4032C18.8085 11.9396 18.8381 12.5244 18.8381 13.0836C18.8381 13.6428 18.8085 14.2275 18.7687 14.764L18.726 15.2816C18.7186 15.3647 18.7112 15.4449 18.7033 15.5234C18.654 16.03 18.4276 16.5031 18.0639 16.8592C17.7003 17.2154 17.2226 17.4319 16.7151 17.4706L16.2486 17.5064L15.7367 17.5417L15.1894 17.5741L14.6183 17.6014C14.129 17.6227 13.6393 17.6337 13.1495 17.6344C12.6597 17.6337 12.17 17.6227 11.6807 17.6014L11.1096 17.5741L10.5629 17.5417L10.0509 17.5064L9.58334 17.4706C9.07589 17.4318 8.5984 17.2152 8.23485 16.859C7.87131 16.5029 7.645 16.0299 7.59576 15.5234L7.573 15.2816L7.53034 14.764C7.48684 14.2049 7.46369 13.6444 7.46094 13.0836C7.46094 12.5244 7.49052 11.9396 7.53034 11.4032L7.573 10.8855C7.5804 10.8025 7.58779 10.7222 7.59576 10.6437C7.64499 10.1373 7.87121 9.66441 8.23463 9.30826C8.59806 8.95212 9.07543 8.73551 9.58277 8.69655L10.0498 8.66014L10.5618 8.62544L11.109 8.59301L11.6801 8.56571C12.1696 8.54445 12.6595 8.53345 13.1495 8.53271ZM13.1495 9.67043C12.6802 9.67043 12.1972 9.68294 11.7274 9.70228L11.171 9.72902L10.6369 9.76031L10.1351 9.79444L9.6755 9.83028C9.43392 9.84742 9.20621 9.94954 9.03274 10.1185C8.85927 10.2875 8.75123 10.5125 8.72778 10.7535C8.66123 11.4413 8.59865 12.2974 8.59865 13.0836C8.59865 13.8697 8.66123 14.7259 8.72778 15.4136C8.77613 15.9096 9.16978 16.2953 9.6755 16.3369L10.1351 16.3721L10.6369 16.4063L11.171 16.4381L11.7274 16.4649C12.1972 16.4842 12.6802 16.4967 13.1495 16.4967C13.6188 16.4967 14.1018 16.4842 14.5716 16.4649L15.128 16.4381L15.6621 16.4068L16.1639 16.3727L16.6235 16.3369C16.8651 16.3197 17.0928 16.2176 17.2663 16.0486C17.4397 15.8796 17.5478 15.6547 17.5712 15.4136C17.6378 14.7259 17.7004 13.8697 17.7004 13.0836C17.7004 12.2974 17.6378 11.4413 17.5712 10.7535C17.5478 10.5125 17.4397 10.2875 17.2663 10.1185C17.0928 9.94954 16.8651 9.84742 16.6235 9.83028L16.1639 9.79501L15.6621 9.76088L15.128 9.72902L14.5716 9.70228C14.0979 9.6819 13.6237 9.67128 13.1495 9.67043ZM12.0118 11.7041C12.0118 11.6485 12.0253 11.5937 12.0513 11.5446C12.0772 11.4954 12.1148 11.4533 12.1607 11.422C12.2066 11.3906 12.2595 11.371 12.3147 11.3647C12.37 11.3585 12.4259 11.3658 12.4777 11.3861L12.5238 11.4089L14.913 12.7878C14.9605 12.8152 15.0008 12.8537 15.0303 12.9001C15.0598 12.9464 15.0777 12.9992 15.0824 13.0539C15.0872 13.1086 15.0786 13.1637 15.0575 13.2144C15.0365 13.2651 15.0035 13.31 14.9613 13.3452L14.913 13.3794L12.5238 14.7589C12.4756 14.7867 12.4214 14.8024 12.3658 14.8045C12.3102 14.8067 12.2549 14.7952 12.2048 14.7711C12.1546 14.747 12.1112 14.7109 12.0781 14.6662C12.0451 14.6214 12.0235 14.5693 12.0152 14.5142L12.0118 14.463V11.7041Z" fill="black"/>
</svg>
