<svg width="319" height="330" viewBox="0 0 319 330" fill="none" xmlns="http://www.w3.org/2000/svg">
<g clip-path="url(#clip0_349_489)">
<path opacity="0.1" d="M199.44 0C133.62 0 80.26 53.36 80.26 119.18C80.26 140.66 85.97 160.8 95.92 178.21C89.76 176.62 83.31 175.76 76.65 175.76C34.32 175.76 0 210.08 0 252.41C0 294.74 34.32 329.06 76.65 329.06C118.98 329.06 153.3 294.74 153.3 252.41C153.3 243.57 151.78 235.08 149.03 227.18C164.35 234.34 181.42 238.37 199.45 238.37C265.27 238.37 318.63 185.01 318.63 119.19C318.63 53.37 265.26 0 199.44 0Z" fill="white"/>
<path d="M267.36 163.54C267.36 206.84 267 250.15 267.54 293.45C267.74 309.93 255.81 317.61 243.48 317.51C192.97 317.08 142.46 317.33 91.9499 317.33C77.0099 317.33 68.8099 309.18 68.8099 294.17C68.7899 206.92 68.7899 119.67 68.8099 32.4201C68.8099 17.4101 76.9999 9.27007 91.9499 9.27007C142.78 9.27007 193.61 9.26007 244.44 9.27007C259.06 9.27007 267.33 17.4901 267.34 32.1801C267.39 75.9701 267.36 119.75 267.36 163.54ZM260.05 259.39C260.05 196.01 260.05 133.08 260.05 70.1101C198.54 70.1101 137.38 70.1101 76.1199 70.1101C76.1199 133.36 76.1199 196.29 76.1199 259.39C137.52 259.39 198.57 259.39 260.05 259.39ZM260 62.1001C260.21 61.2001 260.34 60.8901 260.34 60.5901C260.37 51.7701 260.39 42.9401 260.4 34.1201C260.4 21.2601 255.64 16.5001 242.72 16.5001C193 16.4901 143.28 16.5001 93.5599 16.5001C91.9599 16.5001 90.3499 16.4701 88.7499 16.6101C82.1199 17.1601 76.3899 21.7701 76.0699 28.2801C75.5399 39.4401 75.9199 50.6401 75.9199 62.1001C137.47 62.1001 198.64 62.1001 260 62.1001ZM260.37 267.18C198.54 267.18 137.3 267.18 76.1599 267.18C75.9799 267.94 75.8399 268.25 75.8399 268.56C75.8099 276.41 75.7799 284.27 75.7799 292.12C75.7699 305.41 80.3999 310.09 93.5699 310.09C143.25 310.09 192.93 310.09 242.61 310.09C244.21 310.09 245.82 310.12 247.41 309.98C254.6 309.37 260.11 304.06 260.3 296.91C260.57 287.15 260.37 277.38 260.37 267.18Z" fill="white"/>
<path d="M113.99 129.13C113.06 128.24 111.95 127.1 110.77 126.06C104.91 120.89 104.72 120.6 110.02 114.63C113.51 110.69 117.55 107.24 121.36 103.58C124.28 100.76 126.9 100.92 129.4 104.23C130.74 106.01 132.36 107.58 133.81 109.21C140.67 106.37 147.38 103.59 154.53 100.62C154.3 98.4 154.01 95.89 153.78 93.37C153.51 90.33 154.64 88.28 157.96 88.24C164.48 88.15 171.01 88.19 177.54 88.17C181.64 88.16 182.81 90.47 182.33 94.15C182.04 96.35 181.84 98.56 181.62 100.63C188.53 103.47 195.12 106.18 202.36 109.16C203.74 107.63 205.6 105.7 207.3 103.65C209.31 101.23 211.6 100.7 213.89 102.89C218.85 107.64 223.71 112.5 228.47 117.46C230.67 119.76 230.13 122.06 227.73 124.07C225.77 125.71 223.9 127.46 222.13 129.03C224.94 135.71 227.65 142.15 230.47 148.88C232.54 148.88 235.07 149 237.58 148.85C241.08 148.64 243.18 149.83 243.17 153.63C243.16 160 243.15 166.36 243.19 172.73C243.22 176.78 241.03 178.06 237.33 177.73C235.1 177.53 232.86 177.49 230.6 177.38C227.81 184.01 225.05 190.57 222.12 197.55C223.27 198.58 224.66 199.86 226.09 201.11C231 205.38 231.23 206.15 226.74 211.16C222.9 215.44 218.62 219.31 214.45 223.28C211.89 225.72 209.42 225.67 207.1 222.75C205.53 220.77 203.75 218.95 202.33 217.36C195.42 220.26 188.99 222.96 182.21 225.8C182.21 226.25 182.17 227.03 182.22 227.8C182.9 238.29 182.86 238.57 172.24 239.14C167.32 239.4 162.3 238.97 157.44 238.14C155.97 237.89 154.23 235.44 153.81 233.7C153.19 231.14 153.65 228.33 153.65 225.65C147.29 223 140.85 220.32 133.81 217.39C132.6 218.74 130.9 220.4 129.48 222.26C127.03 225.47 124.42 226 121.46 223.07C117.03 218.69 112.61 214.29 108.24 209.84C105.57 207.12 105.73 204.56 108.83 202.15C110.72 200.69 112.42 198.99 114.03 197.55C111.2 190.83 108.48 184.38 105.67 177.71C103.41 177.71 100.72 177.63 98.0298 177.73C94.9198 177.85 93.0598 176.63 93.0198 173.37C92.9498 167 93.0199 160.63 92.8999 154.27C92.8199 149.69 95.2698 148.42 99.3398 148.86C101.4 149.08 103.48 149.09 105.52 149.19C108.34 142.54 111.1 135.98 113.99 129.13ZM161.22 94.9C161.48 97.69 161.52 99.9 161.92 102.04C162.54 105.35 161.19 106.98 158.11 108.15C150.84 110.9 143.61 113.79 136.54 117C133.69 118.29 131.76 118.14 129.82 115.77C128.25 113.84 126.53 112.02 125.11 110.41C121.39 113.77 118.11 116.72 114.61 119.89C116.54 121.56 117.77 122.83 119.19 123.81C123.16 126.54 123.44 129.36 120.71 133.48C118.09 137.43 116.09 141.92 114.57 146.43C111.29 156.16 111.49 156.22 101.05 156.56C100.77 156.57 100.5 156.81 99.9799 157.07C99.9799 161.2 99.9799 165.44 99.9799 170.03C102.94 170.03 105.73 169.58 108.27 170.19C110.02 170.61 112.11 172.19 112.85 173.8C116.03 180.71 118.59 187.91 121.76 194.82C123.06 197.65 122.95 199.6 120.58 201.54C118.65 203.12 116.84 204.84 115.07 206.41C118.49 210.03 121.52 213.23 124.74 216.64C126.72 214.38 128.35 212.64 129.86 210.79C131.8 208.4 133.75 208.33 136.58 209.63C143.49 212.81 150.69 215.36 157.6 218.54C159.21 219.28 160.77 221.38 161.19 223.13C161.8 225.66 161.35 228.45 161.35 231.24C166.06 231.24 170.41 231.24 174.8 231.24C174.8 228.23 174.34 225.55 174.95 223.15C175.4 221.39 176.92 219.28 178.52 218.54C185.43 215.36 192.63 212.81 199.54 209.64C202.36 208.35 204.31 208.37 206.27 210.76C207.85 212.69 209.57 214.52 211.05 216.19C214.71 212.85 217.96 209.87 221.43 206.71C219.4 204.89 217.95 203.4 216.3 202.18C213.15 199.85 213 197.62 214.84 194C218.07 187.65 220.59 180.92 222.98 174.19C223.98 171.36 225.06 169.73 228.28 169.98C230.79 170.18 233.32 170.02 236.01 170.02C236.01 165.33 236.01 160.98 236.01 156.56C233.02 156.56 230.35 157.01 227.94 156.41C226.17 155.97 224.04 154.47 223.3 152.87C220.12 145.96 217.57 138.75 214.41 131.84C213.13 129.04 213.07 127.08 215.49 125.11C217.43 123.53 219.26 121.82 221.27 120.04C217.76 116.52 214.64 113.41 211.28 110.04C209.87 111.66 208.6 112.88 207.61 114.29C204.92 118.13 202.33 118.49 197.95 116.05C192.04 112.75 185.47 110.52 179 108.38C175.33 107.17 173.38 105.72 174.32 101.6C174.77 99.63 174.67 97.54 174.86 94.9C172.56 94.9 170.67 94.9 168.79 94.9C166.46 94.9 164.09 94.9 161.22 94.9Z" fill="white"/>
<path d="M167.88 43.03C157.95 43.03 148.02 43.01 138.09 43.05C135.32 43.06 132.54 42.76 132.64 39.3C132.74 36.14 135.46 35.96 138.01 35.96C158.03 35.98 178.06 35.98 198.08 35.96C200.8 35.96 203.68 36.16 203.53 39.69C203.4 42.77 200.75 43.07 198.16 43.06C188.06 43 177.97 43.03 167.88 43.03Z" fill="white"/>
<path d="M168.11 284.63C173.39 284.63 178.7 284.32 183.94 284.79C185.8 284.96 188.74 286.79 189.01 288.26C189.61 291.56 186.68 292.24 183.89 292.24C173.32 292.24 162.75 292.41 152.2 292.08C150.4 292.02 147.41 290.06 147.14 288.59C146.55 285.3 149.45 284.62 152.26 284.63C157.55 284.64 162.83 284.63 168.11 284.63Z" fill="white"/>
<path d="M167.88 118.35C192.31 118.07 212.91 138.53 213.03 163.2C213.15 187.72 192.61 208.28 168.05 208.23C143.58 208.17 123.61 188.33 123.15 163.611C122.69 139.291 143.1 118.64 167.88 118.35ZM189.82 193.17C202.45 186.15 208.59 168.03 204.16 152.62C199.25 135.58 183.21 124.69 164.54 125.75C148.27 126.67 133.2 140.961 130.69 158.101C128.34 174.061 138.36 190.25 146.37 192.78C146.37 183.06 146.17 173.46 146.5 163.87C146.59 161.27 147.74 158.241 149.4 156.241C154.01 150.711 159.22 145.681 164.04 140.321C166.8 137.251 169.23 137.12 172.04 140.22C176.78 145.44 181.91 150.34 186.35 155.79C188.19 158.04 189.53 161.34 189.65 164.23C190.07 173.66 189.82 183.12 189.82 193.17ZM153.63 166.75C153.63 175.851 153.79 184.96 153.56 194.05C153.46 198.07 155.04 199.46 159.21 199.12C159.21 190.36 159 181.75 159.3 173.15C159.45 168.97 158.13 166.831 153.63 166.75ZM182.53 166.991C182.18 166.661 181.83 166.331 181.48 166C179.98 167.34 177.25 168.631 177.19 170.021C176.81 179.711 176.99 189.41 176.99 199.211C180.98 199.351 182.72 198.27 182.61 194.31C182.36 185.22 182.53 176.101 182.53 166.991ZM156.74 158.851C164.48 164.831 171.87 164.66 179.47 158.92C177.15 156.41 174.82 153.891 172.29 151.161C169.36 155.731 166.57 155.38 163.84 151.23C161.38 153.87 159.1 156.321 156.74 158.851ZM166.35 172.101C166.35 181.891 166.35 191.13 166.35 200.37C166.69 200.68 167.02 200.99 167.36 201.29C168.24 200.38 169.87 199.491 169.89 198.571C170.08 189.801 170.01 181.031 170.01 172.101C168.6 172.101 167.58 172.101 166.35 172.101Z" fill="white"/>
</g>
<defs>
<clipPath id="clip0_349_489">
<rect width="318.62" height="329.05" fill="white"/>
</clipPath>
</defs>
</svg>
