<svg width="319" height="330" viewBox="0 0 319 330" fill="none" xmlns="http://www.w3.org/2000/svg">
<g clip-path="url(#clip0_349_498)">
<path opacity="0.1" d="M199.44 0C133.62 0 80.26 53.36 80.26 119.18C80.26 140.66 85.97 160.8 95.92 178.21C89.76 176.62 83.31 175.76 76.65 175.76C34.32 175.76 0 210.08 0 252.41C0 294.74 34.32 329.06 76.65 329.06C118.98 329.06 153.3 294.74 153.3 252.41C153.3 243.57 151.78 235.08 149.03 227.18C164.35 234.34 181.42 238.37 199.45 238.37C265.27 238.37 318.63 185.01 318.63 119.19C318.63 53.37 265.26 0 199.44 0Z" fill="white"/>
<path d="M226.46 227.95C226.46 240.78 226.49 252.78 226.45 264.78C226.4 285.65 210.95 301.6 189.98 301.75C155.98 301.99 121.98 302 87.9902 301.75C66.9302 301.59 51.4402 285.45 51.4302 264.25C51.4002 192.06 51.4002 119.88 51.4302 47.6903C51.4402 26.3703 66.5802 10.3203 87.8502 10.0903C122.01 9.72028 156.18 9.69028 190.34 10.1003C211.5 10.3603 226.41 26.2803 226.46 47.3703C226.47 53.0103 226.46 58.6503 226.46 64.9703C228.91 64.9703 231 64.9703 233.1 64.9703C247.1 64.9703 261.1 64.9503 275.1 64.9803C286.46 65.0003 292.52 69.5403 295.94 80.5203C298.31 88.1203 300.1 95.9703 303.19 103.27C307.05 112.38 304.04 119.57 299.04 126.89C297.58 129.03 296.47 131.91 296.44 134.46C296.24 157.8 296.35 181.14 296.32 204.48C296.3 219.63 287.95 227.96 272.86 227.97C259.19 227.98 245.53 227.97 231.86 227.97C230.24 227.95 228.61 227.95 226.46 227.95ZM216.33 227.95C201.1 227.95 186.28 227.44 171.52 228.1C157.67 228.71 146.3 220.52 146.62 203.24C147.03 180.58 146.82 157.9 146.59 135.23C146.56 132.36 145.32 129.18 143.74 126.72C139.05 119.45 136.1 112.35 139.78 103.45C142.94 95.8103 144.95 87.6903 147.42 79.7703C150.55 69.7603 156.82 65.0003 167.28 64.9703C181.78 64.9203 196.28 64.9603 210.78 64.9603C212.55 64.9603 214.32 64.9603 216.48 64.9603C216.48 59.0203 216.49 53.7103 216.48 48.4103C216.43 31.0003 205.58 20.0303 188.12 20.0003C155.46 19.9403 122.79 19.9403 90.1302 20.0003C72.4502 20.0303 61.4302 31.0903 61.4302 48.6803C61.4202 112.36 61.4302 176.05 61.4302 239.73C61.4302 241.5 61.4302 243.27 61.4302 245.1C113.43 245.1 164.82 245.1 216.34 245.1C216.33 239.37 216.33 234.06 216.33 227.95ZM196.28 129.51C184.88 140.38 171.82 142.47 157.1 137.3C156.96 139.03 156.76 140.3 156.76 141.57C156.74 162.56 156.71 183.55 156.76 204.54C156.78 214.11 160.82 217.95 170.57 217.95C204.54 217.95 238.52 217.95 272.49 217.95C282.45 217.95 286.27 214.11 286.28 204.04C286.3 183.38 286.29 162.73 286.27 142.07C286.27 140.64 286.11 139.22 286.02 137.75C264.76 141.53 262.74 141.11 246.78 129.83C228.28 145.6 209.1 141.27 196.28 129.51ZM216.16 255.94C164.47 255.94 113.12 255.94 61.4202 255.94C61.4202 258.31 61.4202 260.28 61.4202 262.26C61.4302 280.93 72.1602 291.77 90.7702 291.79C123.08 291.82 155.4 291.79 187.71 291.8C194.54 291.8 200.92 290.37 206.41 286.09C216.3 278.38 217.37 267.75 216.16 255.94ZM202.03 75.2603C201.77 75.8703 201.54 76.1603 201.54 76.4603C201.49 89.4303 201.25 102.41 201.58 115.38C201.65 118.15 203.12 121.57 205.11 123.5C214.54 132.65 230.26 132.04 239.13 122.52C240.2 121.38 241.39 119.75 241.41 118.33C241.58 104.07 241.51 89.8103 241.51 75.2703C228.1 75.2603 215.19 75.2603 202.03 75.2603ZM251.53 75.0403C251.53 89.6103 251.49 103.43 251.6 117.24C251.61 118.58 252.34 120.12 253.2 121.2C264.01 134.78 286.24 132.17 293.52 116.42C294.41 114.49 294.96 111.85 294.41 109.89C291.73 100.31 288.62 90.8503 285.67 81.3403C284.5 77.5803 281.81 75.2503 278.07 75.1303C269.45 74.8503 260.81 75.0403 251.53 75.0403ZM191.41 74.9803C182.88 74.9803 174.93 74.9803 166.98 74.9803C161.88 74.9803 158.6 77.1803 157.11 82.3103C154.78 90.2603 152.43 98.2403 149.48 105.97C146.88 112.76 149.06 117.9 153.65 122.58C159.68 128.74 167.22 130.89 175.55 129.73C186.25 128.24 191.42 122.02 191.42 111.35C191.42 107.69 191.42 104.02 191.42 100.36C191.41 92.0803 191.41 83.8103 191.41 74.9803Z" fill="white"/>
<path d="M139.32 43.89C134.66 43.89 130 43.85 125.34 43.9C122.01 43.93 119.66 42.46 119.6 39.09C119.54 35.69 122.06 34.01 125.19 33.96C134.34 33.81 143.5 33.83 152.65 33.94C155.81 33.98 158.3 35.52 158.34 38.96C158.38 42.78 155.78 43.97 152.31 43.91C147.98 43.84 143.65 43.89 139.32 43.89Z" fill="white"/>
<path d="M92.6801 43.8805C89.3901 44.1005 86.6201 42.9905 86.5401 39.2205C86.4501 35.2405 89.3501 33.9205 92.8801 33.9005C96.3601 33.8905 99.3301 35.0005 99.3501 39.0605C99.3701 43.3205 96.2701 44.0305 92.6801 43.8805Z" fill="white"/>
<path d="M221.74 152.9C229.9 152.9 238.07 152.85 246.23 152.91C254.5 152.97 259.46 158.03 259.52 166.37C259.55 171.87 259.56 177.37 259.52 182.87C259.46 191.08 254.58 196.09 246.06 196.19C232.23 196.36 218.4 196.25 204.58 196.24C201.42 196.24 198.24 196.34 195.09 196.06C188.47 195.47 183.71 190.55 183.49 183.93C183.29 177.77 183.31 171.6 183.47 165.43C183.66 158.09 188.88 153 196.25 152.91C204.75 152.82 213.24 152.9 221.74 152.9ZM221.64 162.88C214 162.88 206.35 163.01 198.71 162.82C194.95 162.73 193.14 163.83 193.37 167.9C193.62 172.37 193.6 176.88 193.38 181.36C193.19 185.17 194.95 186.27 198.45 186.25C213.9 186.17 229.36 186.17 244.81 186.24C248.1 186.25 249.72 185.16 249.57 181.6C249.37 176.95 249.34 172.28 249.58 167.64C249.77 163.83 248.15 162.73 244.57 162.82C236.93 163 229.28 162.88 221.64 162.88Z" fill="white"/>
<path d="M139 277.151C134.34 277.151 129.68 277.131 125.02 277.161C121.87 277.181 119.31 275.561 119.77 272.631C120.08 270.641 122.76 267.601 124.52 267.511C134.14 267.001 143.82 267.001 153.45 267.501C155.19 267.591 157.82 270.611 158.18 272.611C158.71 275.631 156.13 277.171 152.99 277.161C148.32 277.131 143.66 277.151 139 277.151Z" fill="white"/>
</g>
<defs>
<clipPath id="clip0_349_498">
<rect width="318.62" height="329.05" fill="white"/>
</clipPath>
</defs>
</svg>
