<svg width="319" height="329" viewBox="0 0 319 329" fill="none" xmlns="http://www.w3.org/2000/svg">
<g clip-path="url(#clip0_349_480)">
<path d="M94.6569 226.821C89.5742 214.587 84.95 203.47 80.3358 192.343C76.9773 184.23 73.7284 176.077 70.1904 168.043C69.6124 166.726 67.7887 165.099 66.533 165.089C45.7739 164.9 25.0148 164.96 4.25575 164.95C2.95021 164.95 1.64467 164.95 0.0102539 164.95C0.0102539 167.993 0.0102539 170.728 0.0102539 174.031C1.6945 174.111 3.43854 174.25 5.18258 174.25C22.7924 174.27 40.3923 174.34 58.0021 174.19C61.4503 174.161 63.2043 175.089 64.5796 178.492C74.0273 201.823 83.7441 225.045 93.3912 248.297C93.7699 249.205 94.2383 250.063 95.0754 251.799C99.6797 239.874 104.015 228.657 108.34 217.431C112.675 206.174 117.001 194.907 121.376 183.501C149.569 211.862 177.514 239.964 205.269 267.886C215.653 257.338 225.281 247.568 235.097 237.609C233.612 236.361 231.38 234.495 228.739 232.29C221.972 239.365 214.667 246.999 207.093 254.923C205.129 253.147 203.784 252.019 202.548 250.781C177.773 225.983 153.057 201.125 128.192 176.426C125.79 174.041 125.551 172.255 126.767 169.221C131.82 156.657 136.564 143.963 141.866 130.142C154.323 158.164 166.332 185.178 178.71 213.01C184.36 201.693 189.971 191.175 194.864 180.348C197.057 175.498 199.857 173.981 205.04 174.131C217.966 174.51 230.911 174.26 244.226 174.26C244.226 171.127 244.226 168.403 244.226 165.319C243 165.199 241.734 164.96 240.469 164.96C225.689 164.93 210.9 165.03 196.12 164.87C193.22 164.84 191.695 165.768 190.469 168.373C187.011 175.697 183.284 182.892 179.208 191.046C166.511 162.475 154.164 134.692 141.248 105.633C125.581 146.378 110.333 186.026 94.6569 226.821Z" fill="white"/>
<path d="M206.435 122.448C214.248 114.515 221.364 107.08 228.699 99.8649C243.08 85.7343 260.211 81.4931 278.957 88.5684C297.962 95.7535 308.137 110.653 309.214 130.881C309.941 144.582 304.58 156.457 294.803 166.227C281.399 179.599 268.044 193.022 254.64 206.384C253.355 207.671 251.81 208.689 249.707 210.376C252.707 212.82 254.989 214.677 256.853 216.193C273.057 200.276 290.259 184.998 305.477 167.964C320.116 151.568 322.588 131.509 314.326 111.102C306.214 91.0532 290.617 79.3176 269.27 76.5034C252.139 74.2481 236.721 79.3176 224.065 91.3925C218.205 96.9809 212.783 103.038 206.614 109.455C200.974 103.657 196.1 98.4778 191.058 93.4682C159.037 61.7141 108.171 75.1063 96.1418 118.626C91.5973 135.072 94.9758 150.48 104.493 164.561C104.862 165.109 105.31 165.608 105.779 166.077C105.998 166.297 106.357 166.367 106.835 166.586C109.466 161.547 110.702 157.156 107.872 151.079C94.6469 122.817 113.612 89.8058 144.536 86.0237C159.954 84.1376 172.959 88.8179 183.892 99.5755C191.337 106.9 198.572 114.455 206.435 122.448Z" fill="white"/>
<path d="M279.964 109.156C281.987 111.262 283.572 112.918 285.395 114.814C287.687 113.168 290.049 111.481 293.547 108.956C290.737 106.422 288.246 104.176 285.435 101.642C283.352 104.506 281.648 106.841 279.964 109.156Z" fill="white"/>
<path d="M276.107 96.6213C272.369 95.8628 269.36 95.2441 265.772 94.5156C265.333 97.7389 264.955 100.453 264.536 103.527C267.137 104.126 269.479 104.665 272.399 105.343C273.525 102.679 274.652 100.044 276.107 96.6213Z" fill="white"/>
<path d="M242.631 218.379C241.017 219.996 239.034 221.981 237 224.027C239.263 226.133 241.386 228.109 243.538 230.115C245.103 228.448 247.096 226.312 249.229 224.027C247.435 222.5 245.232 220.614 242.631 218.379Z" fill="white"/>
<path opacity="0.1" d="M215.773 35C163.99 35 122.013 77.0327 122.013 128.885C122.013 145.81 126.508 161.677 134.331 175.389C129.488 174.131 124.405 173.463 119.173 173.463C85.8667 173.463 58.8789 200.496 58.8789 233.837C58.8789 267.178 85.8767 294.212 119.173 294.212C152.479 294.212 179.467 267.178 179.467 233.837C179.467 226.872 178.271 220.186 176.108 213.958C188.157 219.597 201.591 222.77 215.773 222.77C267.556 222.77 309.532 180.737 309.532 128.885C309.532 77.0327 267.556 35 215.773 35Z" fill="white"/>
</g>
<defs>
<clipPath id="clip0_349_480">
<rect width="319" height="329" fill="white"/>
</clipPath>
</defs>
</svg>
